<svg width="163" height="163" viewBox="0 0 163 163" fill="none" xmlns="http://www.w3.org/2000/svg">
<g opacity="0.2">
<path d="M41.1483 10.9673C1.82288 33.6718 -10.5907 83.3528 11.5002 121.615C34.2048 160.941 83.8857 173.354 122.148 151.263C161.474 128.559 173.887 78.8779 151.796 40.6153C129.705 2.35277 79.4109 -11.1236 41.1483 10.9673Z" fill="white"/>
<path d="M112.199 67.7638C105.493 65.9669 96.2119 67.0739 85.419 70.4709L74.9871 52.4024C80.915 50.3971 86.3937 50.0683 92.486 50.8023C93.5489 50.1886 94.1625 51.2515 94.6117 49.575C95.6745 48.9614 95.6745 48.9614 96.1238 47.2849L97.8765 30.6844C97.2629 29.6216 98.3258 29.008 96.6493 28.5587C96.0356 27.4959 94.9728 28.1095 94.3591 27.0467C83.851 26.0279 73.5073 27.7484 63.328 32.2083L60.8735 27.9569C60.2599 26.8941 57.9697 25.382 55.844 26.6093L47.3412 31.5184C46.2784 32.132 44.7663 34.4221 45.9936 36.5478L48.4482 40.7992C41.6218 46.1575 36.472 51.965 34.226 60.3475C31.9799 68.7299 32.4732 76.9479 37.3822 85.4507C42.2913 93.9535 47.4852 98.0405 55.254 99.2237C61.96 101.021 69.5643 99.4644 80.3572 96.0674L91.4027 115.199C84.412 117.818 77.2568 117.697 67.8115 116.065C66.7487 116.678 66.135 115.616 65.0722 116.229C64.0093 116.843 64.0093 116.843 63.5601 118.519L60.1309 134.671C59.6816 136.347 60.9089 138.473 62.5854 138.922C75.3836 141.453 89.0803 140.631 101.385 134.944L105.067 141.321C105.681 142.384 107.971 143.896 110.097 142.668L118.599 137.759C119.662 137.146 121.174 134.855 119.947 132.73L116.265 126.353C124.154 120.381 129.304 114.573 131.55 106.191C133.796 97.8084 133.303 89.5904 128.394 81.0876C125.775 74.0968 119.967 68.947 112.199 67.7638ZM111.104 95.3216C112.331 97.4473 112.495 100.187 112.046 101.863C111.597 103.54 110.085 105.83 107.959 107.057L98.7545 91.1142C102.557 90.3362 105.296 90.1717 105.91 91.2346C107.586 91.6838 109.876 93.1959 111.104 95.3216ZM58.4748 70.4386C57.2475 68.3129 57.6968 66.6364 57.5323 63.8971C57.9816 62.2206 58.4308 60.5441 60.5565 59.3169L69.1474 74.1968C65.3452 74.9748 63.6687 74.5256 61.9922 74.0764C61.9922 74.0764 59.7021 72.5643 58.4748 70.4386Z" fill="#2BC168"/>
</g>
</svg>
