<svg width="163" height="163" viewBox="0 0 163 163" fill="none" xmlns="http://www.w3.org/2000/svg">
<g opacity="0.2">
<path d="M19.5988 29.0495C-9.58964 63.8349 -4.26268 114.765 29.5826 143.165C64.3679 172.353 115.298 167.026 143.698 133.181C172.886 98.3957 167.559 47.4652 133.714 19.0657C99.8689 -9.33381 47.9983 -4.79573 19.5988 29.0495Z" fill="white"/>
<path d="M105.79 58.1201C98.8737 58.7252 90.5312 62.9396 81.551 69.8232L65.5685 56.4123C70.453 52.5004 75.4888 50.3176 81.4648 48.9236C82.2537 47.9835 83.1938 48.7724 83.0425 47.0433C83.8314 46.1032 83.8314 46.1032 83.6801 44.3742L79.6495 28.1754C78.7094 27.3865 79.4983 26.4464 77.7692 26.5976C76.8291 25.8088 76.0402 26.7489 75.1001 25.96C64.8772 28.5967 55.7458 33.7512 47.7058 41.4236L43.9452 38.2681C43.005 37.4793 40.3359 36.8416 38.7581 38.7219L32.4471 46.2431C31.6582 47.1833 31.0206 49.8524 32.9009 51.4302L36.6615 54.5857C32.0795 61.9556 29.2265 69.1742 29.9829 77.8193C30.7392 86.4644 34.0135 94.0181 41.5347 100.329C49.0558 106.64 55.3343 108.704 63.0392 107.159C69.9553 106.554 76.5689 102.491 85.5491 95.6072L102.472 109.807C96.7983 114.659 90.0335 116.993 80.5995 118.69C79.8106 119.63 78.8704 118.841 78.0816 119.781C77.2927 120.721 77.2927 120.721 77.444 122.45L79.7455 138.8C79.8968 140.529 81.7771 142.107 83.5061 141.956C96.3981 139.957 108.988 134.5 118.605 124.947L124.246 129.68C125.186 130.469 127.856 131.107 129.433 129.226L135.744 121.705C136.533 120.765 137.171 118.096 135.291 116.518L129.65 111.785C135.021 103.475 137.874 96.2562 137.117 87.6111C136.361 78.9659 133.087 71.4123 125.565 65.1013C120.713 59.4279 113.495 56.5749 105.79 58.1201ZM114.186 84.3905C116.066 85.9682 117.158 88.4862 117.309 90.2152C117.46 91.9442 116.823 94.6134 115.245 96.4937L101.143 84.6605C104.45 82.629 106.967 81.5375 107.908 82.3264C109.637 82.1751 112.306 82.8127 114.186 84.3905ZM56.2208 79.0083C54.3405 77.4305 54.1892 75.7015 53.0978 73.1836C52.9465 71.4546 52.7952 69.7256 54.373 67.8453L67.535 78.8895C64.2283 80.9211 62.4992 81.0724 60.7702 81.2236C60.7702 81.2236 58.101 80.586 56.2208 79.0083Z" fill="#2BC168"/>
</g>
</svg>
