<svg width="72" height="72" viewBox="0 0 72 72" fill="none" xmlns="http://www.w3.org/2000/svg">
<g opacity="0.2">
<path d="M67.238 18.2112C57.2873 0.975973 35.5135 -4.46453 18.7441 5.21729C1.50892 15.168 -3.93158 36.9418 5.75024 53.7112C15.701 70.9464 37.4747 76.3869 54.2441 66.7051C71.0135 57.0233 76.9199 34.9806 67.238 18.2112Z" fill="white"/>
<path d="M42.3457 49.3505C43.1332 46.4115 42.6481 42.344 41.1593 37.6138L49.0782 33.0418C49.9571 35.6398 50.1012 38.041 49.7795 40.711C50.0484 41.1769 49.5826 41.4458 50.3174 41.6427C50.5863 42.1085 50.5863 42.1085 51.3211 42.3054L58.5966 43.0736C59.0624 42.8046 59.3313 43.2704 59.5282 42.5357C59.994 42.2668 59.7251 41.8009 60.1909 41.532C60.6374 36.9266 59.8833 32.3932 57.9287 27.9319L59.792 26.8562C60.2578 26.5872 60.9205 25.5835 60.3826 24.6519L58.2311 20.9254C57.9621 20.4596 56.9584 19.7969 56.0268 20.3347L54.1635 21.4105C51.8152 18.4187 49.2699 16.1617 45.5961 15.1773C41.9223 14.1929 38.3206 14.4091 34.5941 16.5606C30.8675 18.7121 29.0763 20.9885 28.5578 24.3933C27.7703 27.3323 28.4523 30.6651 29.9411 35.3954L21.5564 40.2363C20.4086 37.1724 20.4613 34.0365 21.1768 29.8969C20.9078 29.4311 21.3736 29.1622 21.1047 28.6963C20.8358 28.2305 20.8358 28.2305 20.101 28.0337L13.0224 26.5307C12.2876 26.3338 11.356 26.8717 11.1591 27.6065C10.0499 33.2156 10.4102 39.2184 12.9027 44.6113L10.1078 46.225C9.64202 46.4939 8.97933 47.4976 9.51721 48.4293L11.6687 52.1558C11.9377 52.6216 12.9414 53.2843 13.873 52.7464L16.6679 51.1328C19.2852 54.5904 21.8305 56.8474 25.5043 57.8318C29.1781 58.8162 32.7798 58.6 36.5063 56.4485C39.5701 55.3007 41.8272 52.7554 42.3457 49.3505ZM30.268 48.8706C29.3363 49.4085 28.1357 49.4805 27.401 49.2837C26.6662 49.0868 25.6625 48.4241 25.1247 47.4925L32.1119 43.4584C32.4529 45.1248 32.525 46.3253 32.0592 46.5943C31.8623 47.329 31.1996 48.3327 30.268 48.8706ZM41.1734 25.8049C42.1051 25.267 42.8398 25.4639 44.0404 25.3918C44.7752 25.5887 45.5099 25.7856 46.0478 26.7172L39.5264 30.4824C39.1853 28.816 39.3822 28.0812 39.5791 27.3465C39.5791 27.3465 40.2418 26.3428 41.1734 25.8049Z" fill="#2BC168"/>
</g>
</svg>
