<svg width="72" height="72" viewBox="0 0 72 72" fill="none" xmlns="http://www.w3.org/2000/svg">
<g opacity="0.2">
<path d="M5.05847 18.2112C15.0092 0.975973 36.783 -4.46453 53.5524 5.21729C70.7876 15.168 76.2281 36.9418 66.5463 53.7112C56.5955 70.9464 34.8218 76.3869 18.0524 66.7051C1.28297 57.0233 -4.62335 34.9806 5.05847 18.2112Z" fill="white"/>
<path d="M29.9508 49.3505C29.1633 46.4115 29.6484 42.344 31.1372 37.6138L23.2183 33.0418C22.3394 35.6398 22.1953 38.041 22.517 40.711C22.2481 41.1769 22.7139 41.4458 21.9791 41.6427C21.7102 42.1085 21.7102 42.1085 20.9754 42.3054L13.6999 43.0736C13.2341 42.8046 12.9652 43.2704 12.7683 42.5357C12.3025 42.2668 12.5714 41.8009 12.1056 41.532C11.6591 36.9266 12.4132 32.3932 14.3678 27.9319L12.5045 26.8562C12.0387 26.5872 11.376 25.5835 11.9139 24.6519L14.0654 20.9254C14.3344 20.4596 15.3381 19.7969 16.2697 20.3347L18.133 21.4105C20.4814 18.4187 23.0266 16.1617 26.7004 15.1773C30.3742 14.1929 33.9759 14.4091 37.7024 16.5606C41.429 18.7121 43.2202 20.9885 43.7387 24.3933C44.5262 27.3323 43.8443 30.6651 42.3554 35.3954L50.7401 40.2363C51.8879 37.1724 51.8352 34.0365 51.1198 29.8969C51.3887 29.4311 50.9229 29.1622 51.1918 28.6963C51.4607 28.2305 51.4608 28.2305 52.1955 28.0337L59.2741 26.5307C60.0089 26.3338 60.9405 26.8717 61.1374 27.6065C62.2466 33.2156 61.8863 39.2184 59.3938 44.6113L62.1887 46.225C62.6545 46.4939 63.3172 47.4976 62.7793 48.4293L60.6278 52.1558C60.3588 52.6216 59.3552 53.2843 58.4235 52.7464L55.6286 51.1328C53.0113 54.5904 50.466 56.8474 46.7922 57.8318C43.1184 58.8162 39.5167 58.6 35.7902 56.4485C32.7264 55.3007 30.4693 52.7554 29.9508 49.3505ZM42.0286 48.8706C42.9602 49.4085 44.1608 49.4805 44.8955 49.2837C45.6303 49.0868 46.634 48.4241 47.1719 47.4925L40.1846 43.4584C39.8436 45.1248 39.7715 46.3253 40.2374 46.5943C40.4342 47.329 41.0969 48.3327 42.0286 48.8706ZM31.1231 25.8049C30.1914 25.267 29.4567 25.4639 28.2561 25.3918C27.5214 25.5887 26.7866 25.7856 26.2487 26.7172L32.7702 30.4824C33.1112 28.816 32.9143 28.0812 32.7174 27.3465C32.7174 27.3465 32.0547 26.3428 31.1231 25.8049Z" fill="#2BC168"/>
</g>
</svg>
