<svg width="163" height="163" viewBox="0 0 163 163" fill="none" xmlns="http://www.w3.org/2000/svg">
<g opacity="0.2">
<path d="M143.698 29.0495C172.886 63.8349 167.559 114.765 133.714 143.165C98.9286 172.353 47.9981 167.026 19.5985 133.181C-9.58986 98.3957 -4.26287 47.4652 29.5824 19.0657C63.4276 -9.33381 115.298 -4.79573 143.698 29.0495Z" fill="white"/>
<path d="M57.5067 58.1201C64.4228 58.7252 72.7653 62.9396 81.7455 69.8232L97.728 56.4123C92.8435 52.5004 87.8077 50.3176 81.8317 48.9236C81.0429 47.9835 80.1027 48.7724 80.254 47.0433C79.4651 46.1032 79.4651 46.1032 79.6164 44.3742L83.647 28.1754C84.5871 27.3865 83.7982 26.4464 85.5273 26.5976C86.4674 25.8088 87.2563 26.7489 88.1964 25.96C98.4193 28.5967 107.551 33.7512 115.591 41.4236L119.351 38.2681C120.291 37.4793 122.961 36.8416 124.538 38.7219L130.849 46.2431C131.638 47.1833 132.276 49.8524 130.396 51.4302L126.635 54.5857C131.217 61.9556 134.07 69.1742 133.314 77.8193C132.557 86.4644 129.283 94.0181 121.762 100.329C114.241 106.64 107.962 108.704 100.257 107.159C93.3412 106.554 86.7276 102.491 77.7475 95.6072L60.8248 109.807C66.4982 114.659 73.2631 116.993 82.697 118.69C83.4859 119.63 84.4261 118.841 85.2149 119.781C86.0038 120.721 86.0038 120.721 85.8525 122.45L83.551 138.8C83.3997 140.529 81.5194 142.107 79.7904 141.956C66.8984 139.957 54.3089 134.5 44.6911 124.947L39.0502 129.68C38.1101 130.469 35.4409 131.107 33.8631 129.226L27.5522 121.705C26.7633 120.765 26.1257 118.096 28.006 116.518L33.6469 111.785C28.276 103.475 25.423 96.2562 26.1794 87.6111C26.9357 78.9659 30.2099 71.4123 37.7311 65.1013C42.5831 59.4279 49.8017 56.5749 57.5067 58.1201ZM49.1104 84.3905C47.2302 85.9682 46.1387 88.4862 45.9875 90.2152C45.8362 91.9442 46.4738 94.6134 48.0516 96.4937L62.1537 84.6605C58.847 82.629 56.3291 81.5375 55.3889 82.3264C53.6599 82.1751 50.9907 82.8127 49.1104 84.3905ZM107.076 79.0083C108.956 77.4305 109.107 75.7015 110.199 73.1836C110.35 71.4546 110.501 69.7256 108.924 67.8453L95.7615 78.8895C99.0682 80.9211 100.797 81.0724 102.526 81.2236C102.526 81.2236 105.195 80.586 107.076 79.0083Z" fill="#2BC168"/>
</g>
</svg>
