<svg width="163" height="163" viewBox="0 0 163 163" fill="none" xmlns="http://www.w3.org/2000/svg">
<g opacity="0.2">
<path d="M122.148 10.9673C161.474 33.6718 173.887 83.3528 151.796 121.615C129.092 160.941 79.4108 173.354 41.1482 151.263C1.82277 128.559 -10.5908 78.8779 11.5002 40.6153C33.5911 2.35277 83.8856 -11.1236 122.148 10.9673Z" fill="white"/>
<path d="M51.0978 67.7638C57.8038 65.9669 67.0846 67.0739 77.8776 70.4709L88.3094 52.4024C82.3815 50.3971 76.9028 50.0683 70.8105 50.8023C69.7477 50.1886 69.134 51.2515 68.6848 49.575C67.622 48.9614 67.622 48.9614 67.1728 47.2849L65.42 30.6844C66.0336 29.6216 64.9707 29.008 66.6472 28.5587C67.2609 27.4959 68.3237 28.1095 68.9374 27.0467C79.4455 26.0279 89.7892 27.7484 99.9685 32.2083L102.423 27.9569C103.037 26.8941 105.327 25.382 107.452 26.6093L115.955 31.5184C117.018 32.132 118.53 34.4221 117.303 36.5478L114.848 40.7992C121.675 46.1575 126.824 51.965 129.071 60.3475C131.317 68.7299 130.823 76.9479 125.914 85.4507C121.005 93.9535 115.811 98.0405 108.042 99.2237C101.337 101.021 93.7322 99.4644 82.9393 96.0674L71.8938 115.199C78.8845 117.818 86.0397 117.697 95.485 116.065C96.5478 116.678 97.1615 115.616 98.2243 116.229C99.2872 116.843 99.2872 116.843 99.7364 118.519L103.166 134.671C103.615 136.347 102.388 138.473 100.711 138.922C87.9129 141.453 74.2162 140.631 61.9112 134.944L58.2294 141.321C57.6158 142.384 55.3256 143.896 53.1999 142.668L44.6971 137.759C43.6343 137.146 42.1222 134.855 43.3495 132.73L47.0313 126.353C39.1422 120.381 33.9923 114.573 31.7463 106.191C29.5002 97.8084 29.9935 89.5904 34.9026 81.0876C37.5215 74.0968 43.3291 68.947 51.0978 67.7638ZM52.1929 95.3216C50.9657 97.4473 50.8013 100.187 51.2505 101.863C51.6997 103.54 53.2117 105.83 55.3374 107.057L64.542 91.1142C60.7398 90.3362 58.0005 90.1717 57.3868 91.2346C55.7103 91.6838 53.4202 93.1959 52.1929 95.3216ZM104.822 70.4386C106.049 68.3129 105.6 66.6364 105.764 63.8971C105.315 62.2206 104.866 60.5441 102.74 59.3169L94.1491 74.1968C97.9513 74.9748 99.6278 74.5256 101.304 74.0764C101.304 74.0764 103.594 72.5643 104.822 70.4386Z" fill="#2BC168"/>
</g>
</svg>
