<svg width="28" height="26" viewBox="0 0 28 26" fill="none" xmlns="http://www.w3.org/2000/svg">
<path d="M24.3355 3.73086C23.3804 2.64486 21.6558 2.57794 20.5061 3.77632L9.25057 15.5089C8.95948 15.8123 8.95948 16.1988 9.25057 16.5022C9.54165 16.8057 9.91244 16.8057 10.2035 16.5022L19.5137 6.79751C20.0564 6.23185 20.9362 6.23185 21.4788 6.79751C22.0215 7.36317 22.0215 8.28029 21.4788 8.84595L12.1687 18.5507C10.7923 19.9854 8.66182 19.9854 7.28541 18.5507C5.909 17.1159 5.909 14.8952 7.28541 13.4605L18.541 1.72788C20.7192 -0.542642 24.2589 -0.616523 26.3635 1.75005C28.5205 4.02184 28.5841 7.69363 26.3226 9.88048L13.1414 23.6203C10.0975 26.7932 5.32683 26.7932 2.28293 23.6203C-0.760976 20.4474 -0.760976 15.4746 2.28293 12.3017L13.5385 0.569102C14.0812 0.00344068 14.961 0.00344068 15.5037 0.569102C16.0463 1.13476 16.0463 2.05188 15.5037 2.61754L4.24809 14.3501C2.28951 16.3917 2.28951 19.5303 4.24809 21.5719C6.20666 23.6135 9.21765 23.6135 11.1762 21.5719L24.3772 7.81144C24.3914 7.7966 24.406 7.78209 24.4208 7.76792C25.4627 6.77241 25.5269 4.9747 24.3772 3.77632C24.363 3.76148 24.3491 3.74633 24.3355 3.73086Z" fill="white"/>
</svg>
