<svg width="26" height="26" viewBox="0 0 26 26" fill="none" xmlns="http://www.w3.org/2000/svg">
<path d="M10.4 2.6C7.52812 2.6 5.2 4.92812 5.2 7.8C5.2 10.6719 7.52812 13 10.4 13C13.2719 13 15.6 10.6719 15.6 7.8C15.6 4.92812 13.2719 2.6 10.4 2.6ZM2.6 7.8C2.6 3.49218 6.09218 0 10.4 0C14.7078 0 18.2 3.49218 18.2 7.8C18.2 12.1078 14.7078 15.6 10.4 15.6C6.09218 15.6 2.6 12.1078 2.6 7.8ZM19.277 2.28457C19.7846 1.77689 20.6078 1.77689 21.1154 2.28457C24.1615 5.33066 24.1615 10.2693 21.1154 13.3154C20.6078 13.8231 19.7846 13.8231 19.277 13.3154C18.7693 12.8078 18.7693 11.9846 19.277 11.477C21.3077 9.44623 21.3077 6.15377 19.277 4.12304C18.7693 3.61536 18.7693 2.79225 19.277 2.28457ZM20.1888 19.1847C20.3629 18.4882 21.0688 18.0647 21.7653 18.2388C23.4916 18.6704 24.5843 19.7742 25.2128 21.0311C25.8209 22.2474 26 23.6043 26 24.7C26 25.418 25.418 26 24.7 26C23.982 26 23.4 25.418 23.4 24.7C23.4 23.8457 23.2541 22.9276 22.8872 22.1939C22.5407 21.5008 22.0084 20.9796 21.1347 20.7612C20.4382 20.5871 20.0147 19.8812 20.1888 19.1847ZM5.85 20.8C4.2127 20.8 2.6 22.3776 2.6 24.7C2.6 25.418 2.01797 26 1.3 26C0.58203 26 0 25.418 0 24.7C0 21.2786 2.46151 18.2 5.85 18.2H14.95C18.3385 18.2 20.8 21.2786 20.8 24.7C20.8 25.418 20.218 26 19.5 26C18.782 26 18.2 25.418 18.2 24.7C18.2 22.3776 16.5873 20.8 14.95 20.8H5.85Z" fill="#333333"/>
</svg>
