<svg width="26" height="26" viewBox="0 0 26 26" fill="none" xmlns="http://www.w3.org/2000/svg">
<path d="M13 2.6C12.282 2.6 11.7 3.18203 11.7 3.9C11.7 6.09993 9.04019 7.20167 7.4846 5.64608C6.97692 5.1384 6.1538 5.1384 5.64612 5.64608C5.13844 6.15376 5.13844 6.97687 5.64612 7.48455C7.20177 9.0402 6.09989 11.7 3.9 11.7C3.18203 11.7 2.6 12.282 2.6 13C2.6 13.718 3.18203 14.3 3.9 14.3C6.10007 14.3 7.20153 16.9599 5.64604 18.5154C5.13836 19.0231 5.13836 19.8462 5.64604 20.3539C6.15372 20.8616 6.97683 20.8616 7.48451 20.3539C9.04007 18.7984 11.7 19.9 11.7 22.1C11.7 22.818 12.282 23.4 13 23.4C13.718 23.4 14.3 22.818 14.3 22.1C14.3 19.9 16.9599 18.7983 18.5155 20.3539C19.0231 20.8616 19.8463 20.8616 20.3539 20.3539C20.8616 19.8462 20.8616 19.0231 20.3539 18.5154C18.7984 16.9599 19.9 14.3 22.1 14.3C22.818 14.3 23.4 13.718 23.4 13C23.4 12.282 22.818 11.7 22.1 11.7C19.9002 11.7 18.7982 9.04027 20.3539 7.48458C20.8615 6.97689 20.8615 6.15378 20.3539 5.6461C19.8462 5.13842 19.0231 5.13842 18.5154 5.6461C16.9597 7.20173 14.3 6.09985 14.3 3.9C14.3 3.18203 13.718 2.6 13 2.6ZM9.11061 3.61014C9.25891 1.59159 10.9436 0 13 0C15.0564 0 16.7411 1.59159 16.8894 3.61014C18.4216 2.2877 20.7382 2.35352 22.1923 3.80762C23.6464 5.26173 23.7123 7.57841 22.3898 9.1106C24.4084 9.25887 26 10.9436 26 13C26 15.0564 24.4084 16.7411 22.3899 16.8894C23.7123 18.4216 23.6465 20.7383 22.1924 22.1924C20.7383 23.6465 18.4216 23.7123 16.8894 22.3898C16.7411 24.4084 15.0564 26 13 26C10.9436 26 9.25887 24.4084 9.1106 22.3898C7.57841 23.7123 5.26169 23.6465 3.80756 22.1924C2.35344 20.7383 2.28763 18.4216 3.61013 16.8894C1.59159 16.7411 0 15.0564 0 13C0 10.9436 1.59163 9.25887 3.61021 9.1106C2.28772 7.57841 2.35353 5.26171 3.80764 3.8076C5.26175 2.3535 7.57842 2.28768 9.11061 3.61014Z" fill="white"/>
<path d="M13 10.4C12.3104 10.4 11.6491 10.6739 11.1615 11.1615C10.6739 11.6491 10.4 12.3104 10.4 13C10.4 13.6896 10.6739 14.3509 11.1615 14.8385C11.6491 15.3261 12.3104 15.6 13 15.6C13.6896 15.6 14.3509 15.3261 14.8385 14.8385C15.3261 14.3509 15.6 13.6896 15.6 13C15.6 12.3104 15.3261 11.6491 14.8385 11.1615C14.3509 10.6739 13.6896 10.4 13 10.4ZM9.32304 9.32304C10.2982 8.34785 11.6209 7.8 13 7.8C14.3791 7.8 15.7018 8.34785 16.677 9.32304C17.6521 10.2982 18.2 11.6209 18.2 13C18.2 14.3791 17.6521 15.7018 16.677 16.677C15.7018 17.6521 14.3791 18.2 13 18.2C11.6209 18.2 10.2982 17.6521 9.32304 16.677C8.34785 15.7018 7.8 14.3791 7.8 13C7.8 11.6209 8.34785 10.2982 9.32304 9.32304Z" fill="white"/>
</svg>
