<svg width="26" height="26" viewBox="0 0 26 26" fill="none" xmlns="http://www.w3.org/2000/svg">
<path d="M12.3687 0.163596C12.7613 -0.0545318 13.2387 -0.0545318 13.6313 0.163596L25.3311 6.6636C25.7438 6.89288 25.9998 7.32788 25.9998 7.8C25.9998 8.27212 25.7438 8.70712 25.3311 8.9364L13.6313 15.4364C13.2387 15.6545 12.7613 15.6545 12.3687 15.4364L0.668889 8.9364C0.256192 8.70712 0.000236774 8.27212 0.000236774 7.8C0.000236774 7.32788 0.256192 6.89288 0.668889 6.6636L12.3687 0.163596ZM3.97703 7.8L13 12.8129L22.023 7.8L13 2.78715L3.97703 7.8Z" fill="#333333"/>
<path d="M0.163829 12.3687C0.5125 11.741 1.30393 11.5149 1.93154 11.8636L13 18.0129L24.0685 11.8636C24.6961 11.5149 25.4875 11.741 25.8362 12.3687C26.1848 12.9963 25.9587 13.7877 25.3311 14.1364L13.6313 20.6364C13.2387 20.8545 12.7613 20.8545 12.3687 20.6364L0.668889 14.1364C0.0412814 13.7877 -0.184841 12.9963 0.163829 12.3687Z" fill="#333333"/>
<path d="M0.163829 17.5687C0.5125 16.941 1.30393 16.7149 1.93154 17.0636L13 23.2129L24.0685 17.0636C24.6961 16.7149 25.4875 16.941 25.8362 17.5687C26.1848 18.1963 25.9587 18.9877 25.3311 19.3364L13.6313 25.8364C13.2387 26.0545 12.7613 26.0545 12.3687 25.8364L0.668889 19.3364C0.0412815 18.9877 -0.184841 18.1963 0.163829 17.5687Z" fill="#333333"/>
</svg>
