<svg width="27" height="26" viewBox="0 0 27 26" fill="none" xmlns="http://www.w3.org/2000/svg">
<path d="M12.6031 0.34565C13.1146 -0.115217 13.8854 -0.115217 14.3969 0.34565L26.5469 11.293C27.1041 11.7951 27.1543 12.6601 26.659 13.2249C26.1637 13.7898 25.3104 13.8407 24.7531 13.3386L24.3 12.9303V23.2632C24.3 24.7747 23.0912 26 21.6 26H5.40001C3.90884 26 2.70001 24.7747 2.70001 23.2632V12.9303L2.2469 13.3386C1.68965 13.8407 0.83635 13.7898 0.341012 13.2249C-0.154327 12.6601 -0.104133 11.7951 0.453123 11.293L12.6031 0.34565ZM5.40001 10.4976V23.2632H9.45V16.4211C9.45 15.6653 10.0544 15.0526 10.8 15.0526H16.2C16.9456 15.0526 17.55 15.6653 17.55 16.4211V23.2632H21.6V10.4976L13.5 3.19931L5.40001 10.4976ZM14.85 23.2632V17.7895H12.15V23.2632H14.85Z" fill="#333333"/>
</svg>
