<svg width="27" height="26" viewBox="0 0 27 26" fill="none" xmlns="http://www.w3.org/2000/svg">
<path d="M17.0526 23.1111C16.2678 23.1111 15.6316 23.7578 15.6316 24.5556C15.6316 25.3533 16.2678 26 17.0526 26H24.1579C25.7275 26 27 24.7066 27 23.1111V2.88889C27 1.2934 25.7275 0 24.1579 0H17.0526C16.2678 0 15.6316 0.646698 15.6316 1.44444C15.6316 2.24219 16.2678 2.88889 17.0526 2.88889H24.1579V23.1111H17.0526Z" fill="#333333"/>
<path d="M19.4878 14.0119C19.6194 13.8756 19.7191 13.7194 19.7869 13.5529C19.8559 13.3839 19.8942 13.1986 19.8947 13.0043L19.8947 13L19.8947 12.9957C19.8937 12.6274 19.7549 12.2596 19.4785 11.9786L13.7943 6.20085C13.2394 5.63675 12.3396 5.63675 11.7846 6.20085C11.2297 6.76494 11.2297 7.67951 11.7846 8.2436L15.043 11.5556H1.42105C0.636226 11.5556 0 12.2023 0 13C0 13.7977 0.636226 14.4444 1.42105 14.4444H15.043L11.7846 17.7564C11.2297 18.3205 11.2297 19.2351 11.7846 19.7992C12.3396 20.3632 13.2394 20.3632 13.7943 19.7992L19.4775 14.0224L19.4878 14.0119Z" fill="#333333"/>
</svg>
