<svg width="26" height="26" viewBox="0 0 26 26" fill="none" xmlns="http://www.w3.org/2000/svg">
<path d="M0 1.3C0 0.58203 0.58203 0 1.3 0H11.7C12.0448 0 12.3754 0.136964 12.6192 0.380761L25.6192 13.3808C26.1269 13.8884 26.1269 14.7116 25.6192 15.2192L15.2192 25.6192C14.7116 26.1269 13.8884 26.1269 13.3808 25.6192L0.380761 12.6192C0.136964 12.3754 0 12.0448 0 11.7V1.3ZM2.6 2.6V11.1615L14.3 22.8615L22.8615 14.3L11.1615 2.6H2.6Z" fill="white"/>
<path d="M9.1 7.15C9.1 8.22696 8.22696 9.1 7.15 9.1C6.07304 9.1 5.2 8.22696 5.2 7.15C5.2 6.07304 6.07304 5.2 7.15 5.2C8.22696 5.2 9.1 6.07304 9.1 7.15Z" fill="white"/>
</svg>
