<svg width="32" height="32" viewBox="0 0 32 32" fill="none" xmlns="http://www.w3.org/2000/svg">
<path fill-rule="evenodd" clip-rule="evenodd" d="M2.05713 15.7075C2.05713 9.8449 2.05713 6.91362 3.45413 4.80231C4.07795 3.8595 4.88538 3.05208 5.82818 2.42825C7.9395 1.03125 10.8708 1.03125 16.7333 1.03125C22.5959 1.03125 25.5272 1.03125 27.6385 2.42825C28.5813 3.05208 29.3887 3.8595 30.0125 4.80231C31.4095 6.91362 31.4095 9.8449 31.4095 15.7075C31.4095 21.57 31.4095 24.5013 30.0125 26.6126C29.3887 27.5554 28.5813 28.3628 27.6385 28.9867C25.5272 30.3837 22.5959 30.3837 16.7333 30.3837C10.8708 30.3837 7.9395 30.3837 5.82818 28.9867C4.88538 28.3628 4.07795 27.5554 3.45413 26.6126C2.05713 24.5013 2.05713 21.57 2.05713 15.7075ZM24.3307 15.7077C24.3307 19.904 20.929 23.3058 16.7327 23.3058C12.5364 23.3058 9.13464 19.904 9.13464 15.7077C9.13464 11.5114 12.5364 8.10967 16.7327 8.10967C20.929 8.10967 24.3307 11.5114 24.3307 15.7077ZM16.7327 20.7351C19.5093 20.7351 21.7601 18.4843 21.7601 15.7077C21.7601 12.9312 19.5093 10.6803 16.7327 10.6803C13.9561 10.6803 11.7053 12.9312 11.7053 15.7077C11.7053 18.4843 13.9561 20.7351 16.7327 20.7351ZM24.6308 9.51261C25.6168 9.51261 26.4161 8.71329 26.4161 7.72729C26.4161 6.74129 25.6168 5.94197 24.6308 5.94197C23.6448 5.94197 22.8454 6.74129 22.8454 7.72729C22.8454 8.71329 23.6448 9.51261 24.6308 9.51261Z" fill="white"/>
</svg>
