<svg width="32" height="30" viewBox="0 0 32 30" fill="none" xmlns="http://www.w3.org/2000/svg">
<path d="M1.91357 4.79316C1.91357 3.8519 2.24413 3.07539 2.90521 2.4636C3.56629 1.85179 4.42573 1.5459 5.48346 1.5459C6.52233 1.5459 7.36284 1.84707 8.00505 2.44948C8.66613 3.0707 8.99668 3.88014 8.99668 4.87787C8.99668 5.78145 8.67559 6.53442 8.03338 7.13683C7.3723 7.75805 6.50343 8.06865 5.4268 8.06865H5.39846C4.3596 8.06865 3.51909 7.75805 2.87688 7.13683C2.23467 6.51562 1.91357 5.73438 1.91357 4.79316ZM2.2819 29.5006V10.6382H8.5717V29.5006H2.2819ZM12.0566 29.5006H18.3464V18.9682C18.3464 18.3093 18.422 17.801 18.5731 17.4434C18.8375 16.8033 19.2389 16.2621 19.7772 15.8197C20.3155 15.3773 20.9907 15.1562 21.8029 15.1562C23.9184 15.1562 24.9762 16.5774 24.9762 19.4199V29.5006H31.266V18.6858C31.266 15.8997 30.6049 13.7867 29.2827 12.3466C27.9605 10.9065 26.2134 10.1864 24.0412 10.1864C21.6046 10.1864 19.7063 11.2312 18.3464 13.3207V13.3772H18.3181L18.3464 13.3207V10.6382H12.0566C12.0944 11.2406 12.1133 13.1137 12.1133 16.2574C12.1133 19.4011 12.0944 23.8155 12.0566 29.5006Z" fill="white"/>
</svg>
