<svg width="32" height="26" viewBox="0 0 32 26" fill="none" xmlns="http://www.w3.org/2000/svg">
<path d="M21.8111 0.806067V0.800781H23.1874L23.6903 0.901219C24.0256 0.966424 24.3299 1.05187 24.6034 1.1576C24.8769 1.26332 25.1416 1.38667 25.3975 1.52763C25.6533 1.66859 25.8854 1.81221 26.0936 1.95845C26.3 2.10295 26.4853 2.25625 26.6494 2.41835C26.8117 2.58222 27.0649 2.62451 27.409 2.54522C27.7531 2.46593 28.1236 2.35579 28.5206 2.21483C28.9176 2.07388 29.3102 1.91529 29.6984 1.73908C30.0866 1.56286 30.3231 1.45098 30.4078 1.40341C30.4907 1.35409 30.5348 1.32765 30.5401 1.32411L30.5454 1.31618L30.5718 1.30297L30.5983 1.28975L30.6248 1.27654L30.6512 1.26332L30.6565 1.25539L30.6645 1.25011L30.6724 1.24482L30.6777 1.23689L30.7042 1.22896L30.7306 1.22368L30.7254 1.26332L30.7174 1.30297L30.7042 1.34261L30.6909 1.38226L30.6777 1.40869L30.6645 1.43512L30.6512 1.47477C30.6424 1.5012 30.6336 1.53643 30.6248 1.58049C30.616 1.62455 30.5321 1.80074 30.3733 2.10911C30.2145 2.41748 30.016 2.73024 29.7778 3.04741C29.5396 3.36458 29.3261 3.6042 29.1373 3.76633C28.9468 3.9302 28.8206 4.04472 28.7588 4.10993C28.6971 4.17688 28.6221 4.23854 28.5339 4.29494L28.4015 4.38217L28.375 4.39538L28.3486 4.4086L28.3433 4.41653L28.3353 4.42181L28.3274 4.4271L28.3221 4.43503L28.2956 4.44824L28.2692 4.46146L28.2639 4.46939L28.2559 4.47467L28.248 4.47996L28.2427 4.48789L28.2374 4.49582L28.2295 4.5011L28.2215 4.50639L28.2162 4.51432H28.3486L29.0897 4.35573C29.5837 4.25001 30.0557 4.12227 30.5057 3.97249L31.2203 3.73461L31.2997 3.70818L31.3394 3.69496L31.3659 3.68175L31.3923 3.66853L31.4188 3.65532L31.4453 3.6421L31.4982 3.63417L31.5511 3.62889V3.68175L31.5379 3.68703L31.5247 3.69496L31.5194 3.70289L31.5114 3.70818L31.5035 3.71346L31.4982 3.72139L31.4929 3.72932L31.485 3.73461L31.477 3.7399L31.4717 3.74782L31.4665 3.75575L31.4585 3.76104L31.4453 3.78747L31.432 3.8139L31.4241 3.81919C31.4206 3.82447 31.3085 3.97423 31.088 4.26851C30.8674 4.56454 30.7483 4.7143 30.7306 4.71784C30.713 4.72312 30.6883 4.74955 30.6565 4.79713C30.6266 4.84645 30.4395 5.04294 30.0954 5.38654C29.7514 5.73014 29.4144 6.03584 29.0844 6.30369C28.7527 6.57329 28.585 6.90454 28.5815 7.29749C28.5762 7.68867 28.5559 8.13096 28.5206 8.62432C28.4853 9.11771 28.4192 9.65071 28.3221 10.2234C28.2251 10.7961 28.0751 11.4436 27.8722 12.1661C27.6693 12.8885 27.4222 13.5933 27.1311 14.2805C26.8399 14.9677 26.5356 15.5844 26.2179 16.1307C25.9003 16.6769 25.6092 17.1395 25.3445 17.5183C25.0798 17.8971 24.8108 18.254 24.5373 18.5888C24.2638 18.9236 23.918 19.3007 23.4998 19.72C23.0798 20.1376 22.8504 20.3667 22.8116 20.4072C22.771 20.446 22.5981 20.5905 22.2928 20.8407C21.9893 21.0926 21.6629 21.3446 21.3135 21.5966C20.9659 21.8468 20.6465 22.0556 20.3554 22.223C20.0643 22.3904 19.7131 22.5816 19.302 22.7966C18.8927 23.0133 18.4497 23.2142 17.9733 23.3992C17.4969 23.5842 16.994 23.756 16.4647 23.9146C15.9353 24.0732 15.4236 24.1965 14.9296 24.2846C14.4355 24.3727 13.8753 24.4476 13.2489 24.5093L12.3093 24.6018V24.615H10.5889V24.6018L10.3639 24.5886C10.214 24.5798 10.0905 24.5709 9.9934 24.5621C9.89637 24.5533 9.53022 24.5049 8.895 24.4168C8.25978 24.3287 7.76132 24.2406 7.39959 24.1525C7.03788 24.0644 6.49969 23.897 5.78507 23.6503C5.07045 23.4036 4.45905 23.1542 3.95088 22.9023C3.44447 22.6521 3.12686 22.4935 2.99805 22.4265C2.871 22.3613 2.72808 22.2803 2.56927 22.1834L2.33107 22.038L2.3258 22.0301L2.31783 22.0248L2.30989 22.0195L2.3046 22.0116L2.27813 21.9983L2.25167 21.9851L2.2464 21.9772L2.23843 21.9719L2.23049 21.9666L2.2252 21.9587L2.21993 21.9508L2.21196 21.9455H2.19873V21.8926L2.2252 21.8979L2.25167 21.9058L2.37077 21.9191C2.45017 21.9279 2.66633 21.9411 3.01922 21.9587C3.37214 21.9763 3.74708 21.9763 4.14409 21.9587C4.5411 21.9411 4.94695 21.9014 5.36159 21.8398C5.77626 21.7781 6.26591 21.6724 6.83054 21.5226C7.39519 21.3728 7.91395 21.1948 8.38685 20.9887C8.85797 20.7808 9.19321 20.6257 9.39261 20.5235C9.59022 20.4231 9.89195 20.2363 10.2978 19.9632L10.9065 19.5535L10.9118 19.5456L10.9198 19.5403L10.9277 19.535L10.933 19.5271L10.9383 19.5191L10.9462 19.5138L10.9542 19.5086L10.9595 19.5006L10.9859 19.4927L11.0124 19.4874L11.0177 19.461L11.0256 19.4346L11.0336 19.4293L11.0389 19.4213L10.8271 19.4081C10.686 19.3993 10.5492 19.3905 10.4169 19.3817C10.2845 19.3729 10.0772 19.3332 9.79489 19.2628C9.51259 19.1923 9.20821 19.0865 8.88176 18.9456C8.55534 18.8046 8.23773 18.6372 7.92893 18.4434C7.62017 18.2496 7.39694 18.0883 7.25931 17.9597C7.12345 17.8328 6.94699 17.6531 6.72996 17.4205C6.5147 17.1862 6.32765 16.9456 6.16885 16.699C6.01004 16.4523 5.85831 16.1677 5.71364 15.8452L5.49393 15.3642L5.4807 15.3246L5.46746 15.2849L5.45952 15.2585L5.45423 15.232L5.49393 15.2373L5.53363 15.2453L5.82477 15.2849C6.01888 15.3113 6.32326 15.3201 6.7379 15.3113C7.15257 15.3025 7.43929 15.2849 7.59809 15.2585C7.7569 15.232 7.85395 15.2144 7.88923 15.2056L7.94217 15.1924L8.00834 15.1792L8.07451 15.166L8.0798 15.158L8.08774 15.1527L8.09571 15.1475L8.10097 15.1395L8.04804 15.1263L7.9951 15.1131L7.94217 15.0999L7.88923 15.0867L7.8363 15.0735C7.80102 15.0647 7.73927 15.047 7.65103 15.0206C7.56281 14.9942 7.3246 14.8972 6.93641 14.7299C6.54823 14.5625 6.23944 14.3995 6.01004 14.2409C5.78008 14.0818 5.56081 13.9079 5.35365 13.7202C5.14721 13.5299 4.92048 13.285 4.67344 12.9854C4.42642 12.6859 4.20586 12.3379 4.01175 11.9414C3.81767 11.5449 3.67209 11.1661 3.57504 10.8049C3.47837 10.4458 3.4146 10.0786 3.3845 9.70799L3.33683 9.15294L3.3633 9.15823L3.38977 9.16615L3.41623 9.17937L3.4427 9.19259L3.46917 9.2058L3.49564 9.21902L3.90588 9.40403C4.1794 9.52739 4.51905 9.63311 4.92488 9.7212C5.33073 9.8093 5.57333 9.85777 5.65273 9.86657L5.77184 9.87979H6.01004L6.00478 9.87186L5.99681 9.86657L5.98887 9.86129L5.98358 9.85336L5.97831 9.84543L5.97034 9.84014L5.9624 9.83486L5.95711 9.82693L5.93064 9.81371L5.90417 9.8005L5.89891 9.79257L5.89094 9.78728L5.883 9.78199L5.87771 9.77407L5.85124 9.76085L5.82477 9.74763L5.8195 9.73971C5.81421 9.73616 5.73833 9.67979 5.59186 9.57055C5.44716 9.45954 5.29542 9.31594 5.13662 9.13972C4.97781 8.96351 4.81901 8.77849 4.6602 8.58468C4.50111 8.39041 4.3594 8.18257 4.23672 7.96355C4.11323 7.7433 3.98264 7.46311 3.84501 7.12305C3.70915 6.78473 3.60593 6.44377 3.53534 6.10017C3.46477 5.75657 3.42507 5.41738 3.41623 5.08258C3.40742 4.74778 3.41623 4.46146 3.4427 4.22358C3.46917 3.9857 3.5221 3.71698 3.60151 3.41744C3.68091 3.1179 3.79562 2.80073 3.94558 2.46593L4.17056 1.96374L4.18379 1.92409L4.19702 1.88445L4.20499 1.87916L4.21026 1.87123L4.21555 1.8633L4.22349 1.85802L4.23146 1.8633L4.23672 1.87123L4.24202 1.87916L4.24996 1.88445L4.25793 1.88973L4.26319 1.89766L4.26849 1.90559L4.27643 1.91088L4.28966 1.93731L4.30289 1.96374L4.31086 1.96903L4.31613 1.97696L4.67344 2.37342C4.91164 2.63773 5.19397 2.93288 5.5204 3.25885C5.84685 3.58483 6.0277 3.75398 6.06298 3.76633C6.09829 3.78041 6.14238 3.82093 6.19532 3.88791C6.24825 3.95311 6.42471 4.10906 6.72467 4.35573C7.02465 4.60241 7.41724 4.88877 7.90247 5.21474C8.38772 5.54071 8.92588 5.86229 9.51698 6.17947C10.1081 6.49664 10.7433 6.78296 11.4226 7.03847C12.102 7.29398 12.5784 7.46136 12.8519 7.54066C13.1254 7.61995 13.593 7.72126 14.2547 7.84461C14.9163 7.96796 15.4148 8.04726 15.7501 8.08249C16.0853 8.11772 16.3147 8.13799 16.4382 8.14328L16.6235 8.14857L16.6182 8.10892L16.6103 8.06927L16.5573 7.73889C16.522 7.51864 16.5044 7.21027 16.5044 6.81381C16.5044 6.41734 16.5353 6.05173 16.597 5.71693C16.6588 5.38213 16.7514 5.04294 16.8749 4.69934C16.9985 4.35573 17.1193 4.07995 17.2375 3.87205C17.3575 3.66589 17.5146 3.43065 17.7087 3.16635C17.9028 2.90204 18.1542 2.62893 18.463 2.34699C18.7718 2.06505 19.1247 1.81396 19.5217 1.59371C19.9187 1.37346 20.2848 1.20605 20.6201 1.09152C20.9553 0.976996 21.2377 0.902091 21.467 0.866858C21.6964 0.831626 21.8111 0.811354 21.8111 0.806067V0.806067Z" fill="white"/>
</svg>
