<svg width="35" height="26" viewBox="0 0 35 26" fill="none" xmlns="http://www.w3.org/2000/svg">
<path d="M18.7947 24.0891L12.1705 23.9653C10.0258 23.9221 7.87565 24.0082 5.77295 23.5613C2.57424 22.8935 2.34763 19.6192 2.11051 16.8728C1.78379 13.0115 1.91027 9.08024 2.52685 5.25126C2.87493 3.1028 4.24476 1.8208 6.36316 1.6813C13.5143 1.17501 20.713 1.23501 27.8483 1.47121C28.6019 1.49286 29.3606 1.61121 30.1037 1.74592C33.7716 2.40296 33.8611 6.11342 34.0988 9.23694C34.336 12.3927 34.2358 15.5646 33.7826 18.6989C33.419 21.294 32.7233 23.4702 29.7875 23.6803C26.109 23.955 22.515 24.1762 18.8262 24.1058C18.8264 24.0891 18.8052 24.0891 18.7947 24.0891ZM14.9003 17.519C17.6723 15.8926 20.3915 14.2932 23.1476 12.6777C20.3704 11.0512 17.6565 9.45182 14.9003 7.83626V17.519Z" fill="white"/>
</svg>
