<svg width="74" height="74" viewBox="0 0 74 74" fill="none" xmlns="http://www.w3.org/2000/svg">
<g opacity="0.2">
<path d="M43.6218 1.33816C23.4705 -2.21505 4.79529 11.3389 1.33811 30.9455C-2.2151 51.0967 11.3388 69.7719 30.9454 73.2291C51.0967 76.7823 69.7719 63.2284 73.2291 43.6218C76.6863 24.0152 63.2284 4.79534 43.6218 1.33816Z" fill="white"/>
<path d="M51.6967 41.5237C49.9023 38.9611 46.378 36.655 41.6684 34.7014L43.3009 25.4427C45.928 26.4675 47.9145 27.9409 49.8049 29.9589C50.3495 30.055 50.2535 30.5996 50.8942 30.151C51.4388 30.247 51.4388 30.247 52.0795 29.7984L57.4928 24.5758C57.5889 24.0312 58.1335 24.1272 57.6849 23.4865C57.7809 22.9419 57.2363 22.8459 57.3323 22.3012C54.0001 18.9059 49.9312 16.5037 45.1256 15.0948L45.5097 12.9163C45.6057 12.3717 45.2532 11.1864 44.1639 10.9943L39.8069 10.226C39.2622 10.13 38.0769 10.4826 37.8849 11.5718L37.5008 13.7503C33.5923 13.6227 30.1325 14.1358 26.9292 16.3788C23.7259 18.6218 21.5158 21.6014 20.7475 25.9585C19.9793 30.3155 20.5884 33.2307 22.9274 35.8894C24.7218 38.452 27.7975 40.1175 32.5071 42.071L30.7785 51.8743C27.6067 50.7535 25.1717 48.6395 22.3841 45.3401C21.8394 45.2441 21.9355 44.6995 21.3909 44.6034C20.8462 44.5074 20.8462 44.5074 20.2056 44.956L14.3436 49.538C13.7029 49.9866 13.5108 51.0758 13.9594 51.7165C17.6442 56.2972 22.6104 59.9806 28.5052 61.5816L27.929 64.8494C27.833 65.394 28.1856 66.5793 29.2748 66.7714L33.6319 67.5396C34.1765 67.6357 35.3618 67.2831 35.5538 66.1938L36.13 62.9261C40.5831 63.1497 44.0429 62.6366 47.2463 60.3937C50.4496 58.1507 52.6596 55.171 53.4279 50.814C54.5487 47.6423 54.0357 44.1824 51.6967 41.5237ZM43.3365 50.7193C43.1444 51.8085 42.4077 52.8018 41.7671 53.2504C41.1264 53.699 39.9411 54.0515 38.8519 53.8595L40.2923 45.69C41.8302 46.5228 42.8234 47.2594 42.7274 47.8041C43.176 48.4447 43.5286 49.63 43.3365 50.7193ZM32.3768 26.8859C32.5689 25.7966 33.2095 25.348 33.9462 24.3548C34.5869 23.9062 35.2275 23.4576 36.3168 23.6497L34.9723 31.2745C33.4345 30.4418 32.9859 29.8011 32.5373 29.1604C32.5373 29.1604 32.1847 27.9751 32.3768 26.8859Z" fill="#2BC168"/>
</g>
</svg>
