<svg width="74" height="74" viewBox="0 0 74 74" fill="none" xmlns="http://www.w3.org/2000/svg">
<g opacity="0.2">
<path d="M30.9455 1.33816C51.0968 -2.21505 69.772 11.3389 73.2291 30.9455C76.7824 51.0967 63.2284 69.7719 43.6218 73.2291C23.4706 76.7823 4.79536 63.2284 1.33819 43.6218C-2.11899 24.0152 11.3389 4.79534 30.9455 1.33816Z" fill="white"/>
<path d="M22.8706 41.5237C24.665 38.9611 28.1893 36.655 32.8989 34.7014L31.2663 25.4427C28.6392 26.4675 26.6528 27.9409 24.7623 29.9589C24.2177 30.055 24.3138 30.5996 23.6731 30.151C23.1285 30.247 23.1285 30.247 22.4878 29.7984L17.0744 24.5758C16.9784 24.0312 16.4338 24.1272 16.8824 23.4865C16.7863 22.9419 17.331 22.8459 17.2349 22.3012C20.5672 18.9059 24.6361 16.5037 29.4417 15.0948L29.0576 12.9163C28.9615 12.3717 29.3141 11.1864 30.4034 10.9943L34.7604 10.226C35.305 10.13 36.4903 10.4826 36.6824 11.5718L37.0665 13.7503C40.9749 13.6227 44.4348 14.1358 47.6381 16.3788C50.8414 18.6218 53.0515 21.6014 53.8197 25.9585C54.588 30.3155 53.9789 33.2307 51.6399 35.8894C49.8455 38.452 46.7698 40.1175 42.0602 42.071L43.7888 51.8743C46.9605 50.7535 49.3956 48.6395 52.1832 45.3401C52.7278 45.2441 52.6318 44.6995 53.1764 44.6034C53.721 44.5074 53.721 44.5074 54.3617 44.956L60.2237 49.538C60.8643 49.9866 61.0564 51.0758 60.6078 51.7165C56.923 56.2972 51.9569 59.9806 46.062 61.5816L46.6382 64.8494C46.7342 65.394 46.3817 66.5793 45.2924 66.7714L40.9354 67.5396C40.3908 67.6357 39.2055 67.2831 39.0134 66.1938L38.4372 62.9261C33.9842 63.1497 30.5243 62.6366 27.321 60.3937C24.1177 58.1507 21.9076 55.171 21.1394 50.814C20.0185 47.6423 20.5316 44.1824 22.8706 41.5237ZM31.2308 50.7193C31.4228 51.8085 32.1595 52.8018 32.8002 53.2504C33.4409 53.699 34.6261 54.0515 35.7154 53.8595L34.2749 45.69C32.7371 46.5228 31.7438 47.2594 31.8399 47.8041C31.3913 48.4447 31.0387 49.63 31.2308 50.7193ZM42.1905 26.8859C41.9984 25.7966 41.3577 25.348 40.621 24.3548C39.9804 23.9062 39.3397 23.4576 38.2505 23.6497L39.5949 31.2745C41.1328 30.4418 41.5814 29.8011 42.03 29.1604C42.03 29.1604 42.3825 27.9751 42.1905 26.8859Z" fill="#2BC168"/>
</g>
</svg>
