<svg width="147" height="147" viewBox="0 0 147 147" fill="none" xmlns="http://www.w3.org/2000/svg">
<path d="M73.5 0C32.928 0 0 32.928 0 73.5C0 114.072 32.928 147 73.5 147C114.072 147 147 114.072 147 73.5C147 32.928 114.072 0 73.5 0ZM102.9 80.85H80.85V102.9C80.85 106.942 77.5425 110.25 73.5 110.25C69.4575 110.25 66.15 106.942 66.15 102.9V80.85H44.1C40.0575 80.85 36.75 77.5425 36.75 73.5C36.75 69.4575 40.0575 66.15 44.1 66.15H66.15V44.1C66.15 40.0575 69.4575 36.75 73.5 36.75C77.5425 36.75 80.85 40.0575 80.85 44.1V66.15H102.9C106.942 66.15 110.25 69.4575 110.25 73.5C110.25 77.5425 106.942 80.85 102.9 80.85Z" fill="#323232"/>
</svg>
