<svg width="33" height="33" viewBox="0 0 33 33" fill="none" xmlns="http://www.w3.org/2000/svg">
<path d="M22.9167 12.8333C24.4355 12.8333 25.6667 11.6021 25.6667 10.0833C25.6667 8.56455 24.4355 7.33333 22.9167 7.33333C21.3979 7.33333 20.1667 8.56455 20.1667 10.0833C20.1667 11.6021 21.3979 12.8333 22.9167 12.8333Z" fill="white"/>
<path d="M0 3.66667C0 1.64162 1.64162 0 3.66667 0H29.3333C31.3584 0 33 1.64162 33 3.66667V29.3333C33 31.3584 31.3584 33 29.3333 33H3.66667C1.64162 33 0 31.3584 0 29.3333V3.66667ZM29.3333 3.66667H3.66667V18.1856L9.85479 13.2351C10.5244 12.6994 11.4758 12.6994 12.1453 13.2351L20.0307 19.5433L22.537 17.037C23.253 16.321 24.4138 16.321 25.1298 17.037L29.3333 21.2405V3.66667ZM3.66667 29.3333H29.3333V26.426L23.8334 20.9261L21.4631 23.2964C20.8025 23.9569 19.7509 24.0152 19.0215 23.4316L11.0001 17.0145L3.66667 22.8812V29.3333Z" fill="white"/>
</svg>
