<svg width="106" height="202" viewBox="0 0 106 202" fill="none" xmlns="http://www.w3.org/2000/svg">
<g opacity="0.2">
<path d="M-45.5314 13.5C-94.5668 41.8106 -110.045 103.758 -82.5 151.469C-54.1894 200.504 7.75845 215.983 55.4686 188.437C104.504 160.127 119.983 98.1787 92.4371 50.4686C64.8917 2.75844 2.17871 -14.0455 -45.5314 13.5Z" fill="white"/>
<path d="M43.0622 84.3203C34.7005 82.0798 23.1281 83.46 9.67024 87.6958L-3.33734 65.1661C4.05421 62.6656 10.8857 62.2555 18.4822 63.1708C19.8075 62.4056 20.5727 63.7309 21.1328 61.6405C22.4581 60.8753 22.4581 60.8753 23.0182 58.7849L25.2038 38.0856C24.4386 36.7603 25.7639 35.9952 23.6735 35.435C22.9083 34.1097 21.583 34.8749 20.8179 33.5496C7.71516 32.2793 -5.18253 34.4246 -17.8752 39.9857L-20.9358 34.6846C-21.701 33.3593 -24.5565 31.4739 -27.2071 33.0042L-37.8094 39.1254C-39.1347 39.8906 -41.0201 42.7462 -39.4898 45.3967L-36.4291 50.6978C-44.941 57.3792 -51.3623 64.6206 -54.163 75.0728C-56.9636 85.525 -56.3486 95.7721 -50.2274 106.374C-44.1062 116.977 -37.6298 122.073 -27.9428 123.548C-19.5811 125.789 -10.0991 123.848 3.35873 119.612L17.1315 143.468C8.41461 146.733 -0.507249 146.583 -12.2847 144.548C-13.61 145.313 -14.3751 143.987 -15.7004 144.753C-17.0257 145.518 -17.0257 145.518 -17.5858 147.608L-21.8618 167.747C-22.422 169.838 -20.8917 172.488 -18.8012 173.048C-2.84292 176.204 14.2356 175.179 29.5789 168.088L34.1698 176.039C34.9349 177.365 37.7906 179.25 40.4411 177.72L51.0434 171.599C52.3686 170.833 54.254 167.978 52.7237 165.327L48.1328 157.376C57.9699 149.929 64.3913 142.688 67.192 132.235C69.9926 121.783 69.3776 111.536 63.2564 100.934C59.9907 92.2171 52.7492 85.7957 43.0622 84.3203ZM41.6967 118.682C43.227 121.333 43.432 124.749 42.8719 126.839C42.3118 128.93 40.4264 131.785 37.7758 133.316L26.2985 113.436C31.0395 112.466 34.4553 112.261 35.2204 113.586C37.3108 114.147 40.1664 116.032 41.6967 118.682ZM-23.9268 87.6556C-25.4571 85.0051 -24.8969 82.9146 -25.102 79.4989C-24.5418 77.4085 -23.9817 75.318 -21.3311 73.7877L-10.619 92.3417C-15.36 93.3119 -17.4504 92.7517 -19.5409 92.1916C-19.5409 92.1916 -22.3965 90.3062 -23.9268 87.6556Z" fill="#2BC168"/>
</g>
</svg>
