<svg width="105" height="105" viewBox="0 0 105 105" fill="none" xmlns="http://www.w3.org/2000/svg">
<g opacity="0.2">
<path d="M78.4466 7.84283C53.3533 -6.64482 21.9388 2.34595 7.84272 26.7611C-6.64492 51.8544 2.34585 83.2689 26.761 97.365C51.8543 111.853 83.2688 102.862 97.3649 78.4467C111.461 54.0316 102.862 21.9389 78.4466 7.84283Z" fill="white"/>
<path d="M69.729 65.2264C68.5824 60.9474 65.0097 56.1719 59.689 51.2915L66.3455 39.7621C69.3449 42.3981 71.2746 45.3208 72.8127 48.9216C73.4909 49.3131 73.0994 49.9913 74.1691 49.7047C74.8473 50.0963 74.8473 50.0963 75.9171 49.8096L85.6498 45.4819C86.0414 44.8037 86.7196 45.1953 86.4329 44.1255C86.8245 43.4473 86.1463 43.0557 86.5378 42.3775C83.7482 36.2456 79.4973 31.0786 73.7851 26.8764L75.3513 24.1636C75.7429 23.4854 75.8478 21.7374 74.4914 20.9543L69.0658 17.8218C68.3876 17.4303 66.6397 17.3254 65.8566 18.6818L64.2903 21.3946C59.1514 19.3319 54.2991 18.3389 48.9503 19.7721C43.6015 21.2053 39.2176 24.0998 36.0851 29.5254C32.9526 34.951 32.3513 39.1251 34.176 43.7957C35.3226 48.0747 38.6086 51.7805 43.9293 56.6609L36.8813 68.8684C33.2036 65.8409 30.9873 61.8485 28.8759 56.1082C28.1977 55.7166 28.5893 55.0384 27.9111 54.6468C27.2329 54.2553 27.2329 54.2553 26.1631 54.5419L16.1438 57.7999C15.074 58.0865 14.2909 59.4429 14.5775 60.5127C17.2622 68.3925 22.0864 75.6991 29.155 80.6844L26.8057 84.7536C26.4141 85.4318 26.3092 87.1798 27.6656 87.9629L33.0912 91.0954C33.7694 91.4869 35.5173 91.5918 36.3005 90.2354L38.6498 86.1663C44.4669 88.6205 49.3193 89.6135 54.668 88.1803C60.0168 86.7471 64.4008 83.8526 67.5332 78.427C70.5608 74.7493 71.5537 69.897 69.729 65.2264ZM54.151 73.4135C53.3679 74.7699 51.9066 75.7348 50.8368 76.0214C49.767 76.308 48.0191 76.2031 46.6627 75.42L52.536 65.247C54.1791 67.0999 55.1439 68.5612 54.7524 69.2394C55.039 70.3092 54.9341 72.0571 54.151 73.4135ZM51.1104 36.3917C51.8935 35.0353 52.9633 34.7487 54.4246 33.7839C55.4943 33.4972 56.5641 33.2106 57.9205 33.9937L52.4387 43.4885C50.7956 41.6356 50.509 40.5658 50.2224 39.4961C50.2224 39.4961 50.3273 37.7481 51.1104 36.3917Z" fill="#2BC168"/>
</g>
</svg>
