<svg width="163" height="163" viewBox="0 0 163 163" fill="none" xmlns="http://www.w3.org/2000/svg">
<g opacity="0.2">
<path d="M41.1481 11.5C1.82264 34.2045 -10.5909 83.8855 11.5 122.148C34.2045 161.473 83.8855 173.887 122.148 151.796C161.473 129.092 173.887 79.4106 151.796 41.1481C129.705 2.88548 79.4107 -10.5909 41.1481 11.5Z" fill="white"/>
<path d="M112.198 68.2965C105.492 66.4997 96.2116 67.6066 85.4187 71.0036L74.9869 52.9352C80.9148 50.9298 86.3935 50.601 92.4858 51.335C93.5486 50.7213 94.1622 51.7842 94.6115 50.1077C95.6743 49.4941 95.6743 49.4941 96.1235 47.8176L97.8763 31.2171C97.2627 30.1543 98.3255 29.5407 96.649 29.0915C96.0354 28.0286 94.9725 28.6422 94.3589 27.5794C83.8508 26.5606 73.5071 28.2811 63.3278 32.741L60.8733 28.4896C60.2596 27.4268 57.9695 25.9147 55.8438 27.142L47.341 32.0511C46.2781 32.6647 44.7661 34.9548 45.9934 37.0805L48.4479 41.3319C41.6216 46.6902 36.4718 52.4977 34.2257 60.8802C31.9796 69.2626 32.4729 77.4806 37.382 85.9834C42.2911 94.4862 47.485 98.5732 55.2538 99.7564C61.9597 101.553 69.5641 99.9971 80.357 96.6001L91.4025 115.731C84.4117 118.35 77.2566 118.23 67.8113 116.598C66.7484 117.211 66.1348 116.148 65.0719 116.762C64.0091 117.376 64.0091 117.376 63.5599 119.052L60.1306 135.203C59.6814 136.88 60.9087 139.006 62.5852 139.455C75.3834 141.986 89.0801 141.163 101.385 135.476L105.067 141.853C105.681 142.916 107.971 144.428 110.096 143.201L118.599 138.292C119.662 137.678 121.174 135.388 119.947 133.262L116.265 126.885C124.154 120.913 129.304 115.106 131.55 106.724C133.796 98.3411 133.303 90.1231 128.394 81.6203C125.775 74.6296 119.967 69.4797 112.198 68.2965ZM111.103 95.8543C112.331 97.98 112.495 100.719 112.046 102.396C111.597 104.072 110.085 106.362 107.959 107.59L98.7543 91.647C102.556 90.8689 105.296 90.7045 105.909 91.7673C107.586 92.2165 109.876 93.7286 111.103 95.8543ZM58.4746 70.9713C57.2473 68.8456 57.6965 67.1692 57.5321 64.4298C57.9813 62.7533 58.4305 61.0768 60.5562 59.8496L69.1471 74.7295C65.345 75.5075 63.6685 75.0583 61.992 74.6091C61.992 74.6091 59.7018 73.097 58.4746 70.9713Z" fill="#2BC168"/>
</g>
</svg>
