<svg width="203" height="204" viewBox="0 0 203 204" fill="none" xmlns="http://www.w3.org/2000/svg">
<g opacity="0.2">
<path d="M161.587 20.4421C115.883 -12.9806 52.9611 -2.11919 20.4417 42.3499C-12.9809 88.0542 -2.11951 150.976 42.3496 183.495C88.0539 216.918 150.976 206.057 183.495 161.588C216.014 117.118 206.056 52.9614 161.587 20.4421Z" fill="white"/>
<path d="M132.585 130.092C131.257 121.538 125.32 111.509 116.009 100.909L131.366 79.9096C136.639 85.6614 139.773 91.7452 142.004 99.0642C143.239 99.9675 142.336 101.203 144.475 100.871C145.71 101.774 145.71 101.774 147.848 101.442L167.667 95.0809C168.57 93.8457 169.805 94.749 169.473 92.6104C170.377 91.3752 169.142 90.4718 170.045 89.2366C165.915 76.7371 158.743 65.8049 148.529 56.4398L152.142 51.4988C153.045 50.2635 153.617 46.8897 151.146 45.0831L141.264 37.8565C140.029 36.9532 136.655 36.3818 134.848 38.8523L131.235 43.7933C121.685 38.7054 112.467 35.756 101.774 37.4157C91.0812 39.0754 81.9556 43.7769 74.729 53.659C67.5025 63.541 65.4565 71.5239 68.0195 80.9814C69.3472 89.5357 74.9521 97.4261 84.2627 108.026L68.003 130.261C61.4948 123.606 58.0285 115.384 55.1336 103.787C53.8983 102.884 54.8017 101.649 53.5664 100.745C52.3312 99.8422 52.3311 99.8422 50.1926 100.174L30.0422 104.397C27.9036 104.729 26.097 107.199 26.4289 109.338C29.9877 125.211 37.8237 140.42 50.5081 151.592L45.0882 159.004C44.1849 160.239 43.6135 163.613 46.084 165.419L55.9661 172.646C57.2013 173.549 60.5751 174.121 62.3817 171.65L67.8016 164.239C78.587 170.23 87.8051 173.179 98.498 171.52C109.191 169.86 118.316 165.158 125.543 155.276C132.198 148.768 135.148 139.55 132.585 130.092ZM100.599 142.722C98.7919 145.193 95.75 146.76 93.6114 147.092C91.4728 147.424 88.099 146.853 85.6285 145.046L99.1782 126.517C101.981 130.462 103.548 133.504 102.645 134.74C102.977 136.878 102.405 140.252 100.599 142.722ZM102.476 70.1581C104.283 67.6876 106.421 67.3556 109.463 65.7885C111.602 65.4565 113.74 65.1246 116.211 66.9312L103.564 84.2247C100.762 80.2795 100.43 78.141 100.098 76.0024C100.098 76.0024 100.669 72.6286 102.476 70.1581Z" fill="#2BC168"/>
</g>
</svg>
