<svg width="163" height="163" viewBox="0 0 163 163" fill="none" xmlns="http://www.w3.org/2000/svg">
<g opacity="0.2">
<path d="M102.613 3.40771C58.7507 -8.34503 14.8433 18.007 3.40822 60.6834C-8.34452 104.545 18.0075 148.453 60.6839 159.888C104.546 171.64 148.453 145.288 159.888 102.612C171.323 59.9357 145.289 14.8428 102.613 3.40771Z" fill="white"/>
<path d="M112.692 93.8091C109.22 87.7967 101.875 82.0169 91.8412 76.7872L97.2411 56.6344C102.851 59.4081 106.957 63.0496 110.746 67.8765C111.932 68.1942 111.614 69.3796 113.117 68.5118C114.303 68.8294 114.303 68.8294 115.806 67.9616L128.783 57.4628C129.101 56.2773 130.286 56.595 129.419 55.0919C129.736 53.9064 128.551 53.5888 128.868 52.4033C122.158 44.2525 113.628 38.155 103.276 34.1108L104.547 29.369C104.865 28.1836 104.314 25.495 101.943 24.8597L92.4598 22.3186C91.2744 22.0009 88.5858 22.5511 87.9505 24.922L86.68 29.6638C78.0641 28.6258 70.3161 29.0909 62.8007 33.4299C55.2852 37.769 49.8229 43.9288 47.2818 53.4124C44.7407 62.8961 45.5234 69.4586 50.1801 75.7886C53.6514 81.801 60.1288 86.0778 70.1626 91.3075L64.4451 112.646C57.65 109.554 52.6756 104.41 47.1511 96.5767C45.9656 96.259 46.2833 95.0735 45.0978 94.7559C43.9124 94.4383 43.9124 94.4383 42.4093 95.3061L28.5638 104.302C27.0607 105.17 26.4254 107.541 27.2932 109.044C34.5534 119.883 44.8197 128.987 57.542 133.666L55.6362 140.779C55.3186 141.964 55.8687 144.653 58.2397 145.288L67.7233 147.829C68.9087 148.147 71.5973 147.597 72.2326 145.226L74.1384 138.113C83.9397 139.469 91.6877 139.004 99.2032 134.665C106.719 130.326 112.181 124.166 114.722 114.682C117.813 107.887 117.348 100.139 112.692 93.8091ZM92.4309 112.521C91.7956 114.892 89.9749 116.945 88.4718 117.813C86.9687 118.681 84.2801 119.231 81.9092 118.596L86.6738 100.814C89.9126 102.952 91.9658 104.773 91.6482 105.958C92.516 107.462 93.0662 110.15 92.4309 112.521ZM72.8117 57.712C73.4469 55.3411 74.95 54.4733 76.7708 52.42C78.2739 51.5522 79.777 50.6844 82.1479 51.3196L77.7009 67.916C74.4622 65.7777 73.5944 64.2745 72.7266 62.7714C72.7266 62.7714 72.1764 60.0829 72.8117 57.712Z" fill="#2BC168"/>
</g>
</svg>
