<svg width="395" height="342" viewBox="0 0 395 342" fill="none" xmlns="http://www.w3.org/2000/svg">
<path d="M197.5 338C159.112 338 121.622 328.142 89.778 309.719C57.9362 291.298 33.214 265.171 18.6428 234.713C4.0774 204.267 0.279056 170.807 7.69321 138.535C15.1094 106.254 33.436 76.5112 60.4651 53.1088C87.4995 29.7017 122.007 13.7104 159.648 7.22776C197.289 0.74514 236.3 4.07572 271.729 16.7819C307.158 29.4878 337.35 50.9737 358.548 78.4414C379.738 105.9 391 138.11 391 171C391 215.09 370.776 257.513 334.536 288.891C298.277 320.285 248.991 338 197.5 338ZM197.5 24.5001C164.276 24.5001 131.759 33.0282 104.059 49.0533C76.357 65.0798 54.6705 87.9147 41.8365 114.741C28.9967 141.58 25.6242 171.155 32.1811 199.696C38.7359 228.228 54.8944 254.345 78.5036 274.787C102.107 295.223 132.116 309.09 164.712 314.704C197.309 320.318 231.101 317.44 261.834 306.418C292.567 295.396 318.924 276.7 337.513 252.613C356.109 228.516 366.083 200.115 366.083 171C366.083 131.945 348.159 94.6281 316.496 67.2133C284.851 39.8143 242.04 24.5001 197.5 24.5001ZM197.5 281C172.132 281 147.371 274.485 126.353 262.325C105.337 250.167 89.0527 232.942 79.4643 212.9C69.8817 192.869 67.3876 170.871 72.2616 149.655C77.1376 128.431 89.194 108.845 107.016 93.4139C124.844 77.9784 147.621 67.4158 172.492 63.1325C197.363 58.8492 223.137 61.051 246.536 69.4429C269.936 77.8347 289.846 92.0146 303.81 110.109C317.766 128.194 325.167 149.384 325.167 171C325.167 199.973 311.879 227.898 287.984 248.586C264.072 269.29 231.531 281 197.5 281ZM197.5 81.5C177.296 81.5 157.508 86.6852 140.634 96.4471C123.758 106.21 110.51 120.143 102.659 136.554C94.8019 152.978 92.7328 171.092 96.7495 188.576C100.764 206.051 110.652 222.012 125.055 234.482C139.452 246.947 157.731 255.385 177.556 258.799C197.382 262.214 217.937 260.465 236.64 253.757C255.344 247.049 271.42 235.659 282.775 220.945C294.137 206.222 300.25 188.841 300.25 171C300.25 147.062 289.262 124.244 269.945 107.518C250.646 90.809 224.58 81.5 197.5 81.5ZM197.501 224C185.154 224 173.121 220.828 162.929 214.931C152.74 209.037 144.892 200.714 140.287 191.087C135.687 181.472 134.497 170.934 136.831 160.775C139.167 150.608 144.953 141.178 153.568 133.719C162.189 126.255 173.236 121.121 185.336 119.037C197.436 116.953 209.973 118.026 221.343 122.104C232.713 126.182 242.343 133.056 249.073 141.776C255.795 150.488 259.334 160.657 259.334 171C259.334 184.855 252.982 198.282 241.434 208.281C229.868 218.296 214.072 224 197.501 224ZM197.501 138.5C190.318 138.5 183.258 140.342 177.21 143.841C171.161 147.341 166.35 152.371 163.481 158.367C160.607 164.375 159.841 171.029 161.318 177.456C162.792 183.874 166.411 189.678 171.607 194.177C176.797 198.67 183.345 201.679 190.4 202.894C197.456 204.109 204.773 203.489 211.447 201.096C218.122 198.702 223.915 194.617 228.036 189.277C232.164 183.929 234.418 177.568 234.418 171C234.418 162.179 230.365 153.859 223.394 147.823C216.442 141.804 207.121 138.5 197.501 138.5Z" stroke="#00CC66" stroke-opacity="0.2" stroke-width="8"/>
</svg>
