<svg width="553" height="553" viewBox="0 0 553 553" fill="none" xmlns="http://www.w3.org/2000/svg">
<path d="M276.5 552.999C221.814 552.999 168.355 536.783 122.885 506.401C77.4148 476.019 41.9759 432.835 21.0483 382.311C0.120715 331.788 -5.35613 276.193 5.31267 222.557C15.9815 168.922 42.3164 119.654 80.9855 80.985C119.655 42.3158 168.921 15.9818 222.557 5.31299C276.193 -5.35581 331.788 0.119803 382.311 21.0474C432.835 41.975 476.018 77.4147 506.401 122.885C536.783 168.355 553 221.813 553 276.5C553 349.832 523.869 420.161 472.015 472.014C420.162 523.868 349.833 552.999 276.5 552.999ZM276.5 46.0834C230.928 46.0834 186.379 59.5971 148.487 84.9155C110.596 110.234 81.0624 146.22 63.6227 188.323C46.1831 230.426 41.6207 276.755 50.5113 321.452C59.402 366.148 81.3463 407.204 113.571 439.429C145.795 471.653 186.852 493.598 231.548 502.489C276.244 511.379 322.574 506.816 364.677 489.376C406.78 471.937 442.766 442.404 468.085 404.512C493.403 366.62 506.917 322.072 506.917 276.5C506.917 215.389 482.64 156.782 439.429 113.571C396.217 70.3593 337.611 46.0834 276.5 46.0834Z" fill="#00CC66" fill-opacity="0.05"/>
<path d="M276.5 460.833C240.043 460.833 204.403 450.022 174.09 429.767C143.776 409.512 120.15 380.723 106.198 347.041C92.2467 313.358 88.5959 276.295 95.7084 240.538C102.821 204.781 120.378 171.936 146.157 146.157C171.936 120.377 204.781 102.821 240.538 95.7085C276.296 88.596 313.359 92.2464 347.041 106.198C380.724 120.15 409.512 143.776 429.767 174.09C450.022 204.403 460.833 240.042 460.833 276.5C460.833 325.388 441.413 372.274 406.844 406.843C372.274 441.412 325.388 460.833 276.5 460.833ZM276.5 138.25C249.157 138.25 222.428 146.358 199.692 161.549C176.957 176.74 159.238 198.332 148.774 223.594C138.31 248.856 135.573 276.653 140.907 303.471C146.241 330.289 159.408 354.922 178.742 374.257C198.077 393.591 222.711 406.759 249.529 412.093C276.347 417.427 304.144 414.689 329.406 404.226C354.668 393.762 376.26 376.042 391.451 353.307C406.642 330.572 414.75 303.843 414.75 276.5C414.75 239.834 400.184 204.669 374.257 178.742C348.33 152.815 313.166 138.25 276.5 138.25Z" fill="#00CC66" fill-opacity="0.05"/>
<path d="M276.501 368.666C258.273 368.666 240.453 363.261 225.296 353.133C210.14 343.006 198.326 328.611 191.35 311.77C184.374 294.929 182.549 276.397 186.106 258.519C189.662 240.64 198.44 224.218 211.33 211.328C224.22 198.438 240.641 189.66 258.52 186.104C276.398 182.548 294.93 184.373 311.771 191.349C328.613 198.325 343.008 210.138 353.135 225.295C363.262 240.451 368.668 258.271 368.668 276.5C368.668 300.944 358.958 324.387 341.673 341.671C324.389 358.956 300.946 368.666 276.501 368.666ZM276.501 230.416C267.387 230.416 258.477 233.119 250.899 238.183C243.321 243.246 237.414 250.444 233.926 258.864C230.438 267.285 229.525 276.551 231.303 285.49C233.081 294.429 237.47 302.641 243.915 309.085C250.36 315.53 258.571 319.919 267.511 321.697C276.45 323.475 285.715 322.563 294.136 319.075C302.556 315.587 309.754 309.68 314.817 302.102C319.881 294.524 322.585 285.614 322.585 276.5C322.585 264.278 317.729 252.556 309.087 243.914C300.444 235.271 288.724 230.416 276.501 230.416Z" fill="#00CC66" fill-opacity="0.05"/>
</svg>
