<svg width="24" height="24" viewBox="0 0 24 24" fill="none" xmlns="http://www.w3.org/2000/svg">
<path d="M12 24C9.62666 24 7.30656 23.2962 5.33317 21.9776C3.35978 20.6591 1.82174 18.7849 0.913491 16.5922C0.00523901 14.3995 -0.232454 11.9867 0.230568 9.65892C0.693591 7.33115 1.83652 5.19295 3.51475 3.51472C5.19298 1.83649 7.33114 0.693605 9.65891 0.230582C11.9867 -0.232441 14.3995 0.00519943 16.5922 0.913451C18.7849 1.8217 20.6591 3.35978 21.9776 5.33317C23.2962 7.30656 24 9.62663 24 12C24 15.1826 22.7358 18.2349 20.4853 20.4853C18.2349 22.7357 15.1826 24 12 24ZM12 2.00001C10.0222 2.00001 8.08881 2.58649 6.44431 3.68531C4.79982 4.78412 3.51808 6.34591 2.76121 8.17317C2.00433 10.0004 1.80632 12.0111 2.19218 13.9509C2.57803 15.8907 3.53041 17.6725 4.92893 19.0711C6.32746 20.4696 8.1093 21.422 10.0491 21.8079C11.9889 22.1937 13.9996 21.9957 15.8269 21.2388C17.6541 20.4819 19.2159 19.2002 20.3147 17.5557C21.4135 15.9112 22 13.9778 22 12C22 9.34784 20.9464 6.8043 19.0711 4.92894C17.1957 3.05358 14.6522 2.00001 12 2.00001Z" fill="#00CC66"/>
<path d="M12 20C10.4178 20 8.87104 19.5308 7.55545 18.6518C6.23986 17.7727 5.21448 16.5233 4.60898 15.0615C4.00348 13.5997 3.84504 11.9911 4.15372 10.4393C4.4624 8.88743 5.22435 7.46197 6.34317 6.34315C7.46199 5.22433 8.88745 4.4624 10.4393 4.15372C11.9911 3.84504 13.5997 4.00347 15.0615 4.60897C16.5233 5.21447 17.7727 6.23985 18.6518 7.55544C19.5308 8.87103 20 10.4178 20 12C20 14.1217 19.1572 16.1566 17.6569 17.6569C16.1566 19.1571 14.1218 20 12 20ZM12 6C10.8133 6 9.65329 6.3519 8.6666 7.01119C7.6799 7.67048 6.91088 8.60755 6.45676 9.70391C6.00263 10.8003 5.88381 12.0067 6.11533 13.1705C6.34684 14.3344 6.91824 15.4035 7.75736 16.2426C8.59647 17.0818 9.66561 17.6532 10.8295 17.8847C11.9934 18.1162 13.1998 17.9974 14.2961 17.5433C15.3925 17.0892 16.3296 16.3201 16.9889 15.3334C17.6481 14.3467 18 13.1867 18 12C18 10.4087 17.3679 8.88259 16.2426 7.75737C15.1174 6.63215 13.5913 6 12 6Z" fill="#00CC66"/>
<path d="M12.0001 16C11.209 16 10.4356 15.7654 9.77779 15.3259C9.12 14.8864 8.60728 14.2616 8.30453 13.5307C8.00178 12.7998 7.92259 11.9956 8.07693 11.2196C8.23127 10.4437 8.61224 9.73098 9.17165 9.17157C9.73106 8.61216 10.4438 8.2312 11.2197 8.07686C11.9956 7.92252 12.7999 8.00173 13.5308 8.30448C14.2617 8.60723 14.8864 9.11992 15.326 9.77772C15.7655 10.4355 16.0001 11.2089 16.0001 12C16.0001 13.0609 15.5787 14.0783 14.8285 14.8284C14.0784 15.5786 13.0609 16 12.0001 16ZM12.0001 10C11.6045 10 11.2178 10.1173 10.8889 10.3371C10.56 10.5568 10.3037 10.8692 10.1523 11.2346C10.0009 11.6001 9.9613 12.0022 10.0385 12.3902C10.1156 12.7781 10.3061 13.1345 10.5858 13.4142C10.8655 13.6939 11.2219 13.8844 11.6099 13.9616C11.9978 14.0387 12.4 13.9991 12.7654 13.8478C13.1309 13.6964 13.4432 13.44 13.663 13.1111C13.8827 12.7822 14.0001 12.3956 14.0001 12C14.0001 11.4696 13.7893 10.9609 13.4143 10.5858C13.0392 10.2107 12.5305 10 12.0001 10Z" fill="#00CC66"/>
</svg>
