<svg width="20" height="21" viewBox="0 0 20 21" fill="none" xmlns="http://www.w3.org/2000/svg">
<path d="M10.001 0C10.3798 0 10.726 0.235291 10.8954 0.607776L13.4744 6.27867L19.145 7.18553C19.5216 7.24576 19.8345 7.53584 19.9521 7.93381C20.0697 8.33179 19.9717 8.76866 19.6992 9.06078L15.572 13.485L16.5004 19.723C16.5618 20.1352 16.4053 20.5501 16.0967 20.7937C15.788 21.0373 15.3804 21.0675 15.0448 20.8717L10.001 17.9292L4.95719 20.8717C4.62156 21.0675 4.214 21.0373 3.90534 20.7937C3.59667 20.5501 3.44023 20.1352 3.50159 19.723L4.43 13.485L0.302846 9.06078C0.0303391 8.76866 -0.0677219 8.33179 0.0498854 7.93381C0.167493 7.53584 0.480377 7.24576 0.85701 7.18553L6.52765 6.27867L9.10657 0.607776C9.27596 0.235291 9.62223 0 10.001 0ZM10.001 3.55798L8.08292 7.77573C7.93657 8.09754 7.65627 8.32027 7.33243 8.37206L3.14935 9.04103L6.19908 12.3103C6.43277 12.5608 6.54056 12.9209 6.48786 13.2751L5.80099 17.8901L9.53229 15.7133C9.82541 15.5423 10.1766 15.5423 10.4697 15.7133L14.201 17.8901L13.5142 13.2751C13.4614 12.9209 13.5692 12.5608 13.8029 12.3103L16.8527 9.04103L12.6696 8.37206C12.3457 8.32027 12.0654 8.09754 11.9191 7.77573L10.001 3.55798Z" fill="#FFC700"/>
<rect x="4.77332" y="5.76416" width="10.8388" height="11.9169" rx="4.4883" fill="#FFC700"/>
<rect x="7.09848" y="3.20996" width="5.41939" height="6.80966" rx="2.70969" fill="#FFC700"/>
<rect x="4.77332" y="11.7227" width="5.41939" height="6.80966" rx="2.70969" fill="#FFC700"/>
<rect x="10.968" y="12.5737" width="4.64519" height="6.80966" rx="2.32259" fill="#FFC700"/>
<rect x="11.7438" y="7.46533" width="5.41939" height="5.10724" rx="2.55362" fill="#FFC700"/>
<rect x="2.45117" y="7.46533" width="5.41939" height="5.10724" rx="2.55362" fill="#FFC700"/>
</svg>
