<svg width="20" height="21" viewBox="0 0 20 21" fill="none" xmlns="http://www.w3.org/2000/svg">
<path d="M9.99991 0C10.3787 0 10.7249 0.235291 10.8943 0.607776L13.4733 6.27867L19.1439 7.18553C19.5205 7.24576 19.8334 7.53584 19.951 7.93381C20.0686 8.33179 19.9706 8.76866 19.6981 9.06078L15.5709 13.485L16.4993 19.723C16.5607 20.1352 16.4042 20.5501 16.0956 20.7937C15.7869 21.0373 15.3793 21.0675 15.0437 20.8717L9.99991 17.9292L4.95609 20.8717C4.62046 21.0675 4.2129 21.0373 3.90424 20.7937C3.59557 20.5501 3.43913 20.1352 3.50049 19.723L4.4289 13.485L0.301748 9.06078C0.0292405 8.76866 -0.0688205 8.33179 0.0487867 7.93381C0.166394 7.53584 0.479278 7.24576 0.855911 7.18553L6.52655 6.27867L9.10547 0.607776C9.27487 0.235291 9.62113 0 9.99991 0ZM9.99991 3.55798L8.08182 7.77573C7.93547 8.09754 7.65517 8.32027 7.33133 8.37206L3.14825 9.04103L6.19798 12.3103C6.43167 12.5608 6.53947 12.9209 6.48676 13.2751L5.79989 17.8901L9.53119 15.7133C9.82431 15.5423 10.1755 15.5423 10.4686 15.7133L14.1999 17.8901L13.5131 13.2751C13.4603 12.9209 13.5681 12.5608 13.8018 12.3103L16.8516 9.04103L12.6685 8.37206C12.3446 8.32027 12.0643 8.09754 11.918 7.77573L9.99991 3.55798Z" fill="#0D0D0D"/>
</svg>
