<svg width="23" height="24" viewBox="0 0 23 24" fill="none" xmlns="http://www.w3.org/2000/svg">
<path d="M11.5 2.4C6.41898 2.4 2.3 6.69807 2.3 12C2.3 17.3019 6.41898 21.6 11.5 21.6C16.581 21.6 20.7 17.3019 20.7 12C20.7 6.69807 16.581 2.4 11.5 2.4ZM0 12C0 5.37258 5.14873 0 11.5 0C17.8513 0 23 5.37258 23 12C23 18.6274 17.8513 24 11.5 24C5.14873 24 0 18.6274 0 12Z" fill="#00CC66"/>
<path d="M11.5 9.6C12.1351 9.6 12.65 10.1373 12.65 10.8V18C12.65 18.6627 12.1351 19.2 11.5 19.2C10.8649 19.2 10.35 18.6627 10.35 18V10.8C10.35 10.1373 10.8649 9.6 11.5 9.6Z" fill="#00CC66"/>
<path d="M13.225 6.6C13.225 7.59411 12.4527 8.4 11.5 8.4C10.5473 8.4 9.775 7.59411 9.775 6.6C9.775 5.60589 10.5473 4.8 11.5 4.8C12.4527 4.8 13.225 5.60589 13.225 6.6Z" fill="#00CC66"/>
</svg>
