<svg width="21" height="23" viewBox="0 0 21 23" fill="none" xmlns="http://www.w3.org/2000/svg">
<path d="M10.5 2.3C7.92267 2.3 5.83333 4.35949 5.83333 6.9C5.83333 9.44051 7.92267 11.5 10.5 11.5C13.0773 11.5 15.1667 9.44051 15.1667 6.9C15.1667 4.35949 13.0773 2.3 10.5 2.3ZM3.5 6.9C3.5 3.08923 6.63401 0 10.5 0C14.366 0 17.5 3.08923 17.5 6.9C17.5 10.7108 14.366 13.8 10.5 13.8C6.63401 13.8 3.5 10.7108 3.5 6.9ZM5.83333 18.4C3.90034 18.4 2.33333 19.9446 2.33333 21.85C2.33333 22.4851 1.811 23 1.16667 23C0.522334 23 0 22.4851 0 21.85C0 18.6744 2.61167 16.1 5.83333 16.1H15.1667C18.3883 16.1 21 18.6744 21 21.85C21 22.4851 20.4777 23 19.8333 23C19.189 23 18.6667 22.4851 18.6667 21.85C18.6667 19.9446 17.0997 18.4 15.1667 18.4H5.83333Z" fill="white"/>
</svg>
