<svg width="26" height="24" viewBox="0 0 26 24" fill="none" xmlns="http://www.w3.org/2000/svg">
<path d="M18.4151 2.43949C19.9005 2.52224 21.2932 3.19331 22.2897 4.30646C23.2863 5.4196 23.8059 6.88458 23.7353 8.38216C23.7353 11.8808 20.7385 14.0299 17.8625 16.6072C15.0239 19.1617 13.495 20.5579 13 20.8802C12.461 20.5283 10.5783 18.8041 8.13746 16.6072C5.24909 14.0196 2.26467 11.8501 2.26467 8.38216C2.19412 6.88458 2.71373 5.4196 3.71028 4.30646C4.70682 3.19331 6.09952 2.52224 7.58487 2.43949C8.4077 2.41435 9.22293 2.60483 9.95084 2.9923C10.6788 3.37977 11.2945 3.95097 11.7378 4.65005C12.687 5.98824 12.8452 6.6579 13.0034 6.6579C13.1616 6.6579 13.3175 5.98824 14.2577 4.64664C14.6985 3.94431 15.3144 3.37085 16.044 2.98354C16.7735 2.59623 17.5911 2.40863 18.4151 2.43949ZM18.4151 0.161726C17.389 0.128615 16.3686 0.329236 15.4301 0.748649C14.4915 1.16806 13.659 1.79546 12.9944 2.58412C12.3303 1.79776 11.4994 1.17181 10.5631 0.752523C9.62683 0.333238 8.609 0.131333 7.58487 0.161726C5.49981 0.243899 3.53187 1.15481 2.11137 2.69527C0.690871 4.23573 -0.0665972 6.2804 0.00460121 8.38216C0.00460121 12.4935 2.88619 15.0184 5.67172 17.459C5.99152 17.7392 6.31471 18.0216 6.63564 18.3098L7.79619 19.3553C9.06188 20.5691 10.3888 21.7163 11.7717 22.7924C12.1375 23.0312 12.5641 23.1582 13 23.1582C13.4359 23.1582 13.8625 23.0312 14.2283 22.7924C15.6552 21.6834 17.023 20.4993 18.3259 19.2448L19.3677 18.3064C19.6988 18.0103 20.0345 17.7153 20.3678 17.4249C23.0053 15.1186 25.9954 12.5049 25.9954 8.38216C26.0666 6.2804 25.3091 4.23573 23.8886 2.69527C22.4681 1.15481 20.5002 0.243899 18.4151 0.161726Z" fill="#00CC66"/>
</svg>
