<svg width="20" height="10" viewBox="0 0 20 10" fill="none" xmlns="http://www.w3.org/2000/svg">
<path d="M9.98393 6.86123L17.3951 0.424912C17.53 0.296279 17.6932 0.192454 17.8751 0.119584C18.057 0.0467136 18.2539 0.00627957 18.4541 0.000675067C18.6544 -0.00492943 18.8538 0.0244096 19.0408 0.0869553C19.2277 0.149501 19.3983 0.243982 19.5424 0.364806C19.6866 0.485629 19.8013 0.630339 19.8799 0.79037C19.9585 0.9504 19.9994 1.1225 20 1.29648C20.0006 1.47045 19.9611 1.64277 19.8837 1.80324C19.8063 1.9637 19.6926 2.10905 19.5493 2.23067L19.5128 2.26235L11.0438 9.61914C10.763 9.863 10.3821 10 9.98495 10C9.5878 10 9.20692 9.863 8.92607 9.61914L0.457063 2.26411C0.315614 2.14543 0.202467 2.00371 0.124082 1.84705C0.045697 1.69039 0.00360945 1.52186 0.000222139 1.35107C-0.00316517 1.18029 0.0322142 1.01059 0.10434 0.851684C0.176466 0.692773 0.283926 0.547756 0.420585 0.424912C0.557244 0.302069 0.720425 0.203805 0.900812 0.13573C1.0812 0.0676554 1.27526 0.0311038 1.47191 0.028162C1.66856 0.0252203 1.86396 0.055946 2.04693 0.118585C2.22991 0.181224 2.39689 0.274549 2.53834 0.393232L2.57482 0.424912L9.98393 6.86123Z" fill="#333333"/>
</svg>
