<svg width="21" height="11" viewBox="0 0 21 11" fill="none" xmlns="http://www.w3.org/2000/svg">
<path d="M10.6704 3.2252L3.25922 9.66151C3.12434 9.79015 2.96111 9.89397 2.7792 9.96684C2.59729 10.0397 2.4004 10.0801 2.20017 10.0857C1.99995 10.0914 1.80046 10.062 1.61353 9.99947C1.42659 9.93692 1.256 9.84244 1.11186 9.72162C0.96772 9.60079 0.852959 9.45608 0.774365 9.29605C0.695772 9.13602 0.654945 8.96393 0.654305 8.78995C0.653664 8.61597 0.693218 8.44365 0.77063 8.28319C0.848044 8.12272 0.961739 7.97738 1.10498 7.85575L1.14146 7.82407L9.61047 0.467282C9.89132 0.223421 10.2722 0.0864249 10.6694 0.0864249C11.0665 0.086425 11.4474 0.223421 11.7282 0.467282L20.1972 7.82232C20.3387 7.941 20.4518 8.08272 20.5302 8.23937C20.6086 8.39603 20.6507 8.56457 20.6541 8.73535C20.6575 8.90614 20.6221 9.07583 20.55 9.23474C20.4778 9.39365 20.3704 9.53867 20.2337 9.66151C20.0971 9.78436 19.9339 9.88262 19.7535 9.9507C19.5731 10.0188 19.379 10.0553 19.1824 10.0583C18.9857 10.0612 18.7903 10.0305 18.6074 9.96784C18.4244 9.9052 18.2574 9.81188 18.116 9.69319L18.0795 9.66151L10.6704 3.2252Z" fill="#333333"/>
</svg>
