<svg width="26" height="23" viewBox="0 0 26 23" fill="none" xmlns="http://www.w3.org/2000/svg">
<path d="M12.7304 21.6543L11.5975 21.9275C11.7087 22.3886 12.0882 22.7363 12.5573 22.8068C13.0264 22.8772 13.4913 22.6564 13.7331 22.2483L12.7304 21.6543ZM24.5773 1.65542L25.58 2.24939C25.7933 1.88916 25.7971 1.44214 25.5898 1.07838C25.3825 0.71461 24.996 0.49001 24.5773 0.49001V1.65542ZM1.57812 1.65542V0.49001C1.10511 0.49001 0.679014 0.775917 0.499699 1.21363C0.320383 1.65133 0.423421 2.15401 0.760481 2.48587L1.57812 1.65542ZM9.87851 9.82781L11.0115 9.55461C10.9604 9.34307 10.8512 9.15003 10.6962 8.99736L9.87851 9.82781ZM24.0118 0.635731L9.31306 8.80812L10.4457 10.8453L25.1444 2.67286L24.0118 0.635731ZM13.7331 22.2483L25.58 2.24939L23.5746 1.06145L11.7277 21.0603L13.7331 22.2483ZM24.5773 0.49001H1.57812V2.82084H24.5773V0.49001ZM0.760481 2.48587L9.06087 10.6583L10.6962 8.99736L2.39577 0.824974L0.760481 2.48587ZM8.74558 10.101L11.5975 21.9275L13.8633 21.3811L11.0115 9.55461L8.74558 10.101Z" fill="#00CC66"/>
</svg>
