<svg width="24" height="24" viewBox="0 0 24 24" fill="none" xmlns="http://www.w3.org/2000/svg">
<path d="M23.8988 4.34066C23.8338 4.19913 23.7373 4.06652 23.6095 3.95147L19.6095 0.351472C19.0888 -0.117157 18.2446 -0.117157 17.7239 0.351472C17.2032 0.820101 17.2032 1.5799 17.7239 2.04853L19.4477 3.6L6.66667 3.6C2.98477 3.6 0 6.28629 0 9.6V12C0 12.6627 0.596954 13.2 1.33333 13.2C2.06971 13.2 2.66667 12.6627 2.66667 12L2.66667 9.6C2.66667 7.61177 4.45753 6 6.66667 6L19.4477 6L17.7239 7.55147C17.2032 8.0201 17.2032 8.7799 17.7239 9.24853C18.2446 9.71716 19.0888 9.71716 19.6095 9.24853L23.6085 5.64944C23.6117 5.64653 23.6149 5.6436 23.6181 5.64066C23.8727 5.40736 24 5.10368 24 4.8" fill="#00CC66"/>
<path d="M23.8988 4.34066C23.9635 4.4811 23.9995 4.635 24 4.7964Z" fill="#00CC66"/>
<path d="M0.101172 18.7407C0.0359813 18.8821 6.35783e-07 19.0373 6.35783e-07 19.2C6.35783e-07 19.5314 0.149239 19.8314 0.390525 20.0485L4.39052 23.6485C4.91122 24.1172 5.75544 24.1172 6.27614 23.6485C6.79684 23.1799 6.79684 22.4201 6.27614 21.9515L4.55229 20.4L17.3333 20.4C21.0152 20.4 24 17.7137 24 14.4V12C24 11.3373 23.403 10.8 22.6667 10.8C21.9303 10.8 21.3333 11.3373 21.3333 12V14.4C21.3333 16.3882 19.5425 18 17.3333 18L4.55229 18L6.27614 16.4485C6.79684 15.9799 6.79684 15.2201 6.27614 14.7515C5.75545 14.2828 4.91123 14.2828 4.39053 14.7515L0.390879 18.3512" fill="#00CC66"/>
<path d="M0.101172 18.7407C0.165759 18.6002 0.261269 18.4685 0.387702 18.354Z" fill="#00CC66"/>
</svg>
